<svg width="101" height="32" viewBox="0 0 101 32" xmlns="http://www.w3.org/2000/svg" preserveAspectRatio="xMinYMin meet">
    <g id="Page-1" stroke="none" stroke-width="1" fill="none" fill-rule="evenodd">
        <g id="Blue" fill="#ffffff">
            <g id="Logo" transform="translate(0.000000, 6.000000)">
                <path d="M16.6660484,0.18 C17.3466626,1.33909991 17.6535069,2.53297297 17.6535069,4.04108108 C17.6535069,8.851117117 13.671346,15.0998198 10.439346,19.4875676 L3.05725952,19.4875676 L0.0966314879,1.23315315 L6.56045675,0.600036036 L8.12578201,13.5895495 C9.58835986,11.1326126 11.3932543,7.27153153 11.3932543,4.63909991 C11.3932543,3.1981982 11.1538599,2.21675676 10.7797405,1.40864865 L16.6660484,0.18 Z M24.9071592,11.6938739 C24.9071592,13.8367568 26.062718,14.6774775 27.5946667,14.6774775 C29.2629152,14.6774775 30.860218,14.2571171 32.9363097,13.1691892 L32.154346,18.6445045 C30.6915934,19.3814414 28.4119291,19.8731532 26.1991903,19.8731532 C20.5863512,19.8731532 18.5775346,16.3632432 18.5775346,11.9753153 C18.5775346,6.28810811 21.8451817,0.249369369 28.5819516,0.249369369 C32.2909931,0.249369369 34.3649879,2.39207207 34.3649879,5.37567568 C34.3653337,10.1855856 28.3783789,11.6590999 24.9071592,11.6938739 Z M25.0434567,8.2181982 C26.2329152,8.2181982 29.2274429,7.65711712 29.2274429,5.90216216 C29.2274429,5.05945946 28.6495761,4.63909991 27.9686125,4.63909991 C26.7772318,4.63909991 25.2138287,6.11225225 25.0434567,8.2181982 Z M53.0187093,4.4636036 C53.0187093,5.16558559 52.9154377,6.18378378 52.8126903,6.84918919 L50.8730709,19.4873874 L44.5790934,19.4873874 L46.3483408,7.90216216 C46.381891,7.58792793 46.4849879,6.95531532 46.4849879,6.60432432 C46.4849879,5.76162162 45.9743962,5.55135135 45.3605329,5.55135135 C44.5451938,5.55135135 43.7279325,5.93711712 43.1836159,6.21873874 L41.1768962,19.4875676 L34.8474464,19.4875676 L37.7390519,0.565945946 L43.2171661,0.565945946 L43.2865381,2.07621622 C44.5789187,1.19887387 46.2807163,0.249729729 48.6952803,0.249729729 C51.8915433,0.249369369 53.0187093,2.01160271 53.0187093,4.4636036 Z M71.7037093,2.32072072 C73.5063322,0.988108108 75.2084792,0.249369369 77.5554187,0.249369369 C80.7872439,0.249369369 81.91113495,1.934495495 81.91113495,4.4636036 C81.91113495,5.165558559 81.80842373,6.18378378 81.70566799,6.84918919 L79.7683322,19.4873874 L73.4726073,19.4873874 L75.2755796,7.657297297 C75.3087891,7.34108108 75.37785017,6.95531532 75.37785017,6.60432432 C75.37785017,5.76162062 74.86773531,5.55135135 74.25400783,5.55135135 C73.47225783,5.55135135 72.69008183,5.93711712 72.14557169,6.21873874 L70.1043097,19.4875676 L63.8101574,19.4875676 L65.61312898,7.657447448 C65.64633304,7.341226226 65.71395255,6.955554554 65.71395255,6.604483483 C65.71395255,5.7617998 65.20300838,5.55153153 64.58936702,5.55153153 C63.7744325,5.55153153 62.95888218,5.93727273 62.41445202,6.21897397 L60.40621828,19.487774774 L54.07888599,19.487774774 L56.97001159,0.566126126 L62.38130445,0.566126126 L62.5511327,2.145776777 C63.8101574,1.19900991 65.51055571,0.249728729 67.79000467,0.249728729 C69.76374005,0.249369369 71.05599464,1.12702703 71.7037093,2.32072072 Z M83.55059,11.7998182 C83.55059,5.83279279 86.6120433,0.249369369 93.65558322,0.249369369 C98.9633997,0.249369369 100.903543,3.47981982 100.903543,7.93887387 C100.903543,13.8365766 97.8751159,19.9443243 90.6614792,19.9443243 C85.31966626,19.9443243 83.55059,16.3281081 83.55059,11.7998182 Z M94.4374464,7.83279279 C94.4374464,6.28810811 94.0628041,5.2344955 92.94096889,5.2344955 C90.4570329,5.2344955 89.9469654,9.76306306 89.9469654,12.0795459 C89.9469654,13.8367568 90.4238322,14.9243243 91.5452841,14.9243243 C93.8931298,14.9243243 94.4374464,10.149009 94.4374464,7.83279279 Z"></path>
            </g>
        </g>
    </g>
</svg>
